<?xml version="1.0" encoding="utf-8"?>
<!-- Generator: Adobe Illustrator 20.1.0, SVG Export Plug-In . SVG Version: 6.00 Build 0)  -->
<svg version="1.1" id="Layer_1" xmlns="http://www.w3.org/2000/svg" xmlns:xlink="http://www.w3.org/1999/xlink" x="0px" y="0px"
	 viewBox="0 0 259 259" style="enable-background:new 0 0 259 259;" xml:space="preserve">
<style type="text/css">
	.st0{fill:#FFFFFF;}
	.st1{fill:#343A40;}
	.st2{fill:#B71818;}
</style>
<title>Asset 1</title>
<g>
	<g>
		<path class="st0" d="M49.2,253.7C25.4,253.7,6,234.3,6,210.5V49.9C6,26,25.4,6.7,49.2,6.7h160.6C233.6,6.7,253,26,253,49.9v160.6
			c0,23.8-19.4,43.2-43.2,43.2H49.2z"/>
	</g>
	<g>
		<path class="st1" d="M209.8,12.7c20.5,0,37.2,16.7,37.2,37.2v160.6c0,20.5-16.7,37.2-37.2,37.2H49.2C28.7,247.7,12,231,12,210.5
			V49.9c0-20.5,16.7-37.2,37.2-37.2H209.8 M209.8,0.7H49.2C22.1,0.7,0,22.8,0,49.9v160.6c0,27.1,22.1,49.2,49.2,49.2h160.6
			c27.1,0,49.2-22.1,49.2-49.2V49.9C259,22.8,236.9,0.7,209.8,0.7L209.8,0.7z"/>
	</g>
</g>
<g>
	<g>
		<path class="st1" d="M71.4,53.5c-5.8,0-10.5-4.7-10.5-10.5v-0.5c0-5.8,4.7-10.5,10.5-10.5s10.5,4.7,10.5,10.5V43
			C81.9,48.8,77.2,53.5,71.4,53.5z"/>
	</g>
	<g>
		<path class="st1" d="M71.4,194.8c-5.8,0-10.5-4.7-10.5-10.5v-0.9c0-5.8,4.7-10.5,10.5-10.5s10.5,4.7,10.5,10.5v0.9
			C81.9,190,77.2,194.8,71.4,194.8z M71.4,159.4c-5.8,0-10.5-4.7-10.5-10.5V148c0-5.8,4.7-10.5,10.5-10.5s10.5,4.7,10.5,10.5v0.9
			C81.9,154.7,77.2,159.4,71.4,159.4z M71.4,124.1c-5.8,0-10.5-4.7-10.5-10.5v-0.9c0-5.8,4.7-10.5,10.5-10.5s10.5,4.7,10.5,10.5v0.9
			C81.9,119.4,77.2,124.1,71.4,124.1z M71.4,88.8c-5.8,0-10.5-4.7-10.5-10.5v-0.9c0-5.8,4.7-10.5,10.5-10.5s10.5,4.7,10.5,10.5v0.9
			C81.9,84.1,77.2,88.8,71.4,88.8z"/>
	</g>
	<g>
		<path class="st1" d="M71.4,229.7c-5.8,0-10.5-4.7-10.5-10.5v-0.5c0-5.8,4.7-10.5,10.5-10.5s10.5,4.7,10.5,10.5v0.5
			C81.9,225,77.2,229.7,71.4,229.7z"/>
	</g>
</g>
<g>
	<g>
		<path class="st2" d="M163.7,63.6c13.9,0,24.8,3.3,32.5,9.9c7.7,6.6,11.6,16.2,11.6,28.9c0,12.7-3.9,22.4-11.6,29
			c-7.7,6.7-18.6,10-32.5,10h-27.7v38.5c0,1.3-0.5,2.4-1.4,3.3c-0.9,0.9-2,1.4-3.3,1.4h-14c-1.3,0-2.4-0.5-3.3-1.4
			c-0.9-0.9-1.4-2-1.4-3.3V68.2c0-1.3,0.5-2.4,1.4-3.3c0.9-0.9,2-1.4,3.3-1.4H163.7z M136.1,119.7h26.8c6.6,0,11.8-1.3,15.7-3.9
			c3.9-2.6,5.9-7.1,5.9-13.6c0-6.5-2-10.9-5.9-13.4c-3.9-2.5-9.2-3.7-15.7-3.7h-26.8V119.7z"/>
	</g>
</g>
</svg>
