<?xml version="1.0" encoding="utf-8"?>
<!-- Generator: Adobe Illustrator 20.1.0, SVG Export Plug-In . SVG Version: 6.00 Build 0)  -->
<svg version="1.2" baseProfile="tiny" id="Layer_1" xmlns="http://www.w3.org/2000/svg" xmlns:xlink="http://www.w3.org/1999/xlink"
	 x="0px" y="0px" viewBox="0 0 259 259" overflow="scroll" xml:space="preserve">
<title>Asset 1</title>
<g id="Layer_2">
	<path fill="#FFFFFF" d="M200.7,255.6H54.9C25.2,255.6,1,231.3,1,201.7V55.9C1,26.2,25.2,2,54.9,2h145.8c29.6,0,53.9,24.2,53.9,53.9
		v145.8C254.6,231.3,230.3,255.6,200.7,255.6z"/>
	<g id="Layer_1-2">
		<path fill="#343A40" d="M209.8,14c19.4,0,35.2,15.8,35.2,35.2v160.6c0,19.4-15.8,35.2-35.2,35.2H49.2C29.8,245,14,229.2,14,209.8
			V49.2C14,29.8,29.8,14,49.2,14H209.8 M209.8,0H49.2C22.1,0.1,0.1,22.1,0,49.2v160.6C0.1,237,22.1,258.9,49.2,259h160.6
			c27.1-0.1,49.1-22.1,49.2-49.2V49.2C258.9,22.1,237,0.1,209.8,0z"/>
		<path fill="#343A40" d="M71.4,56.3c-5.5,0-10-4.5-10-10v-0.5c0-5.5,4.5-10,10-10s10,4.5,10,10v0.5C81.4,51.9,76.9,56.3,71.4,56.3z
			"/>
		<path fill="#343A40" d="M71.4,192.9c-5.5,0-10-4.5-10-10v-1c0-5.5,4.5-10,10-10s10,4.5,10,10v1C81.4,188.4,76.9,192.9,71.4,192.9z
			 M71.4,158.8c-5.5,0-10-4.5-10-10v-1c0-5.5,4.5-10,10-10s10,4.5,10,10v1C81.4,154.3,76.9,158.8,71.4,158.8z M71.4,124.6
			c-5.5,0-10-4.5-10-10v-1c0-5.5,4.5-10,10-10s10,4.5,10,10v1C81.4,120.1,76.9,124.6,71.4,124.6L71.4,124.6z M71.4,90.5
			c-5.5,0-10-4.5-10-10v-1c0-5.5,4.5-10,10-10s10,4.5,10,10v1C81.4,86,76.9,90.5,71.4,90.5L71.4,90.5z"/>
		<path fill="#343A40" d="M71.4,226.5c-5.5,0-10-4.5-10-10V216c0-5.5,4.5-10,10-10s10,4.5,10,10v0.5C81.4,222,76.9,226.5,71.4,226.5
			z"/>
		<path fill="#B81918" d="M164.7,62.9c13.9,0,24.8,3.3,32.5,9.8s11.6,16.2,11.6,28.9c0,12.7-3.9,22.3-11.6,29
			c-7.7,6.7-18.6,10-32.5,10h-27.7v38.6c0,2.6-2.1,4.6-4.7,4.7h-14c-2.6,0-4.6-2.1-4.7-4.7V67.6c0-2.6,2.1-4.6,4.7-4.7H164.7z
			 M137.1,119.1h26.8c6.6,0,11.8-1.3,15.7-3.9c3.9-2.6,5.9-7.1,5.9-13.6c0-6.5-2-10.9-5.9-13.4c-3.9-2.5-9.2-3.7-15.7-3.7h-26.8
			L137.1,119.1z"/>
	</g>
</g>
</svg>
