<?xml version="1.0" encoding="utf-8"?>
<!-- Generator: Adobe Illustrator 20.1.0, SVG Export Plug-In . SVG Version: 6.00 Build 0)  -->
<svg version="1.1" id="Layer_1" xmlns="http://www.w3.org/2000/svg" xmlns:xlink="http://www.w3.org/1999/xlink" x="0px" y="0px"
	 viewBox="0 0 260 260" style="enable-background:new 0 0 260 260;" xml:space="preserve">
<g>
	<path d="M210.7,12.6c20.5,0,37.3,16.7,37.3,37.3v160.9c0,20.5-16.7,37.3-37.3,37.3H49.8c-20.5,0-37.3-16.7-37.3-37.3V49.8
		c0-20.5,16.7-37.3,37.3-37.3H210.7 M210.7,0.6H49.8C22.7,0.6,0.5,22.7,0.5,49.8v160.9c0,27.1,22.2,49.3,49.3,49.3h160.9
		c27.1,0,49.3-22.2,49.3-49.3V49.8C259.9,22.7,237.8,0.6,210.7,0.6L210.7,0.6z"/>
</g>
<g>
	<g>
		<path d="M72,53.5c-5.8,0-10.5-4.7-10.5-10.5v-0.5C61.5,36.7,66.2,32,72,32s10.5,4.7,10.5,10.5V43C82.5,48.8,77.8,53.5,72,53.5z"/>
	</g>
	<g>
		<path d="M72,195c-5.8,0-10.5-4.7-10.5-10.5v-0.9c0-5.8,4.7-10.5,10.5-10.5s10.5,4.7,10.5,10.5v0.9C82.5,190.3,77.8,195,72,195z
			 M72,159.6c-5.8,0-10.5-4.7-10.5-10.5v-0.9c0-5.8,4.7-10.5,10.5-10.5s10.5,4.7,10.5,10.5v0.9C82.5,154.9,77.8,159.6,72,159.6z
			 M72,124.2c-5.8,0-10.5-4.7-10.5-10.5v-0.9c0-5.8,4.7-10.5,10.5-10.5s10.5,4.7,10.5,10.5v0.9C82.5,119.5,77.8,124.2,72,124.2z
			 M72,88.9c-5.8,0-10.5-4.7-10.5-10.5v-0.9c0-5.8,4.7-10.5,10.5-10.5s10.5,4.7,10.5,10.5v0.9C82.5,84.2,77.8,88.9,72,88.9z"/>
	</g>
	<g>
		<path d="M72,229.9c-5.8,0-10.5-4.7-10.5-10.5v-0.5c0-5.8,4.7-10.5,10.5-10.5s10.5,4.7,10.5,10.5v0.5
			C82.5,225.2,77.8,229.9,72,229.9z"/>
	</g>
</g>
<g>
	<g>
		<path d="M164.5,63.6c14,0,24.8,3.3,32.5,9.9c7.7,6.6,11.6,16.2,11.6,28.9c0,12.7-3.9,22.4-11.6,29.1c-7.7,6.7-18.6,10-32.5,10
			h-27.7v38.6c0,1.3-0.5,2.4-1.4,3.3c-0.9,0.9-2,1.4-3.3,1.4h-14c-1.3,0-2.4-0.5-3.3-1.4c-0.9-0.9-1.4-2-1.4-3.3V68.2
			c0-1.3,0.5-2.4,1.4-3.3c0.9-0.9,2-1.4,3.3-1.4H164.5z M136.8,119.8h26.8c6.6,0,11.8-1.3,15.8-3.9c3.9-2.6,5.9-7.1,5.9-13.6
			c0-6.5-2-10.9-5.9-13.4c-3.9-2.5-9.2-3.7-15.8-3.7h-26.8V119.8z"/>
	</g>
</g>
</svg>
