<?xml version="1.0" standalone="no"?>
<!DOCTYPE svg PUBLIC "-//W3C//DTD SVG 20010904//EN"
 "http://www.w3.org/TR/2001/REC-SVG-20010904/DTD/svg10.dtd">
<svg version="1.0" xmlns="http://www.w3.org/2000/svg"
 width="260.000000pt" height="260.000000pt" viewBox="0 0 260.000000 260.000000"
 preserveAspectRatio="xMidYMid meet">
<metadata>
Created by potrace 1.11, written by Peter Selinger 2001-2013
</metadata>
<g transform="translate(0.000000,260.000000) scale(0.100000,-0.100000)"
fill="#000000" stroke="none">
<path d="M422 2586 c-187 -46 -325 -172 -393 -356 l-24 -65 0 -870 0 -870 23
-64 c59 -162 184 -288 340 -340 60 -21 79 -21 939 -21 l878 0 66 24 c151 53
271 174 328 331 l22 60 -3 895 -3 895 -26 59 c-71 160 -209 279 -376 323 -16
4 -408 8 -873 9 -664 2 -856 0 -898 -10z"/>
</g>
</svg>
